<svg xmlns="http://www.w3.org/2000/svg">
    <defs>
        <symbol id="404-sign" viewBox="0 0 382 192">
            <path d="M244 150.104v1h79.872V187.2h31.952v-36.096h24.32v-30.16h-24.32V6h-31.492l-.296.451-79.872 121.6-.164.25v21.803Zm79.872-92.487v63.327h-42.938l42.938-63.327Z" fill="#D5DBDB" stroke="#637B7E" stroke-width="2"/>
            <path d="M118.002 96.4c0 28.825 7.141 52.425 20.054 68.842 12.933 16.443 31.596 25.598 54.418 25.598 22.947 0 41.611-9.088 54.514-25.502 12.882-16.387 19.958-39.988 19.958-68.938 0-28.95-7.076-52.552-19.958-68.938C234.085 11.048 215.421 1.96 192.474 1.96c-22.822 0-41.485 9.155-54.418 25.598-12.913 16.417-20.054 40.017-20.054 68.842Zm74.472 63.256c-13.221 0-23.338-5.773-30.198-16.499-6.895-10.782-10.53-26.629-10.53-46.757 0-20.128 3.635-35.975 10.53-46.757 6.86-10.726 16.977-16.499 30.198-16.499 13.353 0 23.533 5.776 30.423 16.5 6.926 10.782 10.561 26.628 10.561 46.756s-3.635 35.974-10.561 46.755c-6.89 10.725-17.07 16.501-30.423 16.501Z" fill="#D5DBDB" stroke="#637B7E" stroke-width="2"/>
            <path d="M1 150.104v1h79.872V187.2h31.952v-36.096h24.32v-30.16h-24.32V6H81.332l-.296.451-79.872 121.6-.164.25v21.803Zm79.872-92.487v63.327H37.934l42.938-63.327Z" fill="#D5DBDB" stroke="#637B7E" stroke-width="2"/>
        </symbol>
        <symbol id="icon-arrow-up" viewBox="0 0 8 8">
            <path d="M3.5 2.528V7a.5.5 0 0 0 1 0V2.718c.18.234.36.439.55.622.518.504 1.072.82 1.75 1.117a.5.5 0 1 0 .402-.916c-.618-.271-1.054-.528-1.456-.918-.406-.395-.802-.949-1.298-1.85a.5.5 0 0 0-.873-.036C1.978 3.003 1.46 3.333.853 3.522a.5.5 0 1 0 .297.955c.761-.237 1.35-.665 2.35-1.95Z" fill="currentcolor"/>
        </symbol>
        <symbol id="divider-swash" viewBox="0 0 13 150">
            <path d="M12 .5c-.004.806.08 1.662.076 2.468C12.224 19.912 4.593 43 6.093 58.5s.256 46.883 3.912 72.55c.698 4.791 1.446 9.496 2.194 14.2.133.769.23 1.402.276 2.122.12.993-.02 1.836-1.027 2.179-1.006.342-1.772-.331-2.128-1.114-.566-1.02-1.082-2.126-1.325-3.305-.742-3.315-1.52-6.767-1.902-10.105C1.374 97.2 3 74 .5 58.5S10.935 8.545 11.237 2.022a19.6 19.6 0 0 0 .18-1.512c.137-.037.36-.024.583-.01Z" fill="currentcolor"/>
        </symbol>
        <symbol id="icon-arrow-path-rounded" viewBox="0 0 24 24">
            <path stroke-linecap="round" stroke-linejoin="round" d="M19.5 12c0-1.232-.046-2.453-.138-3.662a4.006 4.006 0 0 0-3.7-3.7 48.678 48.678 0 0 0-7.324 0 4.006 4.006 0 0 0-3.7 3.7c-.017.22-.032.441-.046.662M19.5 12l3-3m-3 3-3-3m-12 3c0 1.232.046 2.453.138 3.662a4.006 4.006 0 0 0 3.7 3.7 48.656 48.656 0 0 0 7.324 0 4.006 4.006 0 0 0 3.7-3.7c.017-.22.032-.441.046-.662M4.5 12l3 3m-3-3-3 3" stroke="currentcolor" fill="none" stroke-width="1.5"/>
        </symbol>
        <symbol id="il-revamped-img" viewBox="0 0 57 38">
            <title>Revamped image</title>
            <path fill="currentcolor" d="M44.457 3.483c.14-.279 1.254-1.161 2.51-1.95v-.047C48.173.696 49.335 0 49.474 0c.14 0 .512.186.837.372.418.232.465.743.232 1.671-.186.743-1.208 2.09-2.23 2.926-1.116.929-2.184 1.44-2.696 1.3-.418-.139-.929-.696-1.068-1.3-.186-.557-.186-1.254-.093-1.486ZM3.657 2.6c-.14-.557 0-1.067.372-1.253.325-.186.65-.372.697-.372.093 0 .604.232 1.162.511.604.279 1.533.975 2.137 1.533.604.557 1.023 1.532 1.023 2.229 0 .743-.326 1.44-.697 1.625-.512.279-1.302-.186-2.603-1.486-1.022-1.022-1.951-2.275-2.09-2.786Zm24.953 9.243c-1.394.557-1.58.836-1.533 2.183.046.836.418 1.997.79 2.554.511.79 1.162 1.068 2.323 1.068 1.162 0 1.813-.279 2.324-1.068.372-.557.697-1.393.697-1.858 0-.418-.558-1.44-1.301-2.182-.697-.79-1.348-1.393-1.487-1.393-.14.046-.93.325-1.813.696Z"/>
            <path fill="currentcolor" fill-rule="evenodd" d="M11.278 7.013c-.232.65-.372 6.269-.279 13.235.14 10.17.326 12.353.976 13.793.418.975 1.255 2.09 1.859 2.461.883.604 2.649.697 11.942.558 8.318-.14 11.525-.372 13.476-.976 1.394-.418 2.835-1.021 3.16-1.3.325-.325.79-2.461 1.023-4.783.232-2.322.65-5.248.882-6.502.233-1.3.605-4.83.79-7.895l.372-5.573c-2.137-2.043-3.764-2.926-5.065-3.25-1.673-.465-6.04-.697-15.52-.79l-13.151-.14-.465 1.162Zm3.207 12.584c-.186-.185-.325-2.461-.325-5.108V9.752h12.314c9.897 0 12.64.14 15.567 1.393v3.483c0 1.904-.233 3.576-.465 3.715-.232.14-1.115-.092-1.859-.464-.743-.372-2.044-.697-2.788-.697-.743 0-2.184.372-3.113.883-.976.464-2.417 1.672-4.647 4.458l-2.277-1.765c-1.255-.975-3.02-2.09-3.904-2.461-.882-.372-2.276-.65-3.02-.65-.743 0-2.23.51-3.253 1.16-1.022.605-2.044.976-2.23.79Zm1.208 5.248c.558-1.022 1.766-2.322 2.649-2.926.836-.557 1.812-1.021 2.09-1.021.233 0 1.534.65 2.789 1.44 1.301.789 4.182 3.297 6.413 5.572 2.23 2.276 4.368 4.087 4.74 4.087.418 0 .929-.51 1.161-1.161.279-.604.372-1.393.232-1.718-.139-.325-1.068-1.161-2.09-1.858-1.023-.697-1.86-1.579-1.86-1.997 0-.371.79-1.486 1.766-2.508 1.348-1.44 2.092-1.857 3.346-1.857 1.208-.047 1.998.325 2.928 1.254 1.161 1.16 1.3 1.532 1.069 3.483l-.229 1.953-.002.014-.003.027c-.13 1.108-.297 2.532-.51 4.368l-2.881.743c-2.277.557-5.065.697-22.445.418l-.092-3.25c-.093-2.648.046-3.577.929-5.063Z" clip-rule="evenodd"/>
            <path fill="currentcolor" d="M50.637 11.006c-1.255.604-2.277 1.394-2.23 1.719.046.278.51.975 1.022 1.486l.976.929c2.974-1.44 4.136-2.322 4.46-2.926.326-.557.512-1.347.419-1.718-.14-.372-.743-.697-1.301-.697-.558.046-2.091.557-3.346 1.207ZM.312 12.307c.325-.325.975-.65 1.487-.743.51-.093 1.672-.047 2.555.093.93.139 2.23.603 2.928 1.068.697.418 1.301.975 1.301 1.254 0 .232-.744.65-1.626.928-.883.233-2.417.325-3.393.186-.929-.093-2.23-.696-2.788-1.254-.883-.836-.976-1.114-.464-1.532Zm2.044 10.31c.232-.511 1.44-1.394 2.742-1.951 1.254-.604 2.51-1.068 2.788-1.068.232-.046.743.14 1.162.371.557.372.557.65.093 1.765-.326.743-1.302 1.626-2.324 2.09-.976.464-2.044.836-2.416.836-.418 0-1.115-.232-1.58-.557-.558-.418-.697-.883-.465-1.486Zm47.352-.651c-.744.233-1.348.743-1.255 1.115.047.372.79.975 1.72 1.347.882.371 1.951.696 2.416.696.465.047 1.394-.464 2.137-1.021l1.348-1.069c-1.72-1.3-2.835-1.625-3.578-1.625-.79.047-2.045.279-2.788.557Z"/>
        </symbol>
        <symbol id="il-magnifier" viewBox="0 0 66 76">
            <title>Magnifier</title>
            <path fill-rule="evenodd" clip-rule="evenodd" d="M40.549 7.298c-6.122-.684-12.226 1.165-16.332 6.22-4.357 5.365-4.799 9.85-3.934 13.552.928 3.973 3.46 7.484 5.936 10.538a3.5 3.5 0 0 1 .302 3.972 3.495 3.495 0 0 1 3.143.375c.84.56 2.156 1.195 2.923 1.52 7.515 1.81 12.869 1.347 16.596-.146 3.712-1.488 6.153-4.131 7.638-7.355 1.511-3.284 2.026-7.188 1.707-10.944-.32-3.783-1.46-7.105-2.92-9.246-3.094-4.539-8.859-7.793-15.06-8.486ZM26.325 48.126c-.187-.114-.369-.23-.544-.346a3.499 3.499 0 0 1-1.547-3.198L9.016 64.239l4.114 2.88 13.195-18.993Zm6.707 2.615c7.53 1.516 13.756 1.088 18.754-.914 5.57-2.232 9.253-6.276 11.393-10.926 2.114-4.592 2.724-9.75 2.324-14.463-.398-4.686-1.822-9.24-4.111-12.598C56.986 5.38 49.25 1.227 41.326.342c-8.003-.894-16.65 1.507-22.543 8.763-5.643 6.948-6.701 13.63-5.316 19.558 1.04 4.449 3.406 8.233 5.597 11.16L1.232 62.858a3.5 3.5 0 0 0 .76 5.01l10 7a3.5 3.5 0 0 0 4.882-.87l16.158-23.256Zm-.796-29.454c-1.147.94-1.734 1.814-1.94 2.39a3.5 3.5 0 0 1-6.592-2.354c.77-2.155 2.334-4.006 4.091-5.448 1.792-1.47 3.992-2.689 6.358-3.499 4.655-1.593 10.615-1.787 15.442 1.82a3.5 3.5 0 1 1-4.19 5.607c-2.359-1.762-5.673-1.938-8.985-.804-1.617.554-3.073 1.375-4.184 2.288Z" fill="currentcolor"/>
        </symbol>
        <symbol id="il-datadriven" viewBox="0 0 144 86">
            <title>Data driven content</title>
            <path fill-rule="evenodd" clip-rule="evenodd" d="M118.956 1.097A3.499 3.499 0 0 1 121.5 0H140a3.5 3.5 0 0 1 3.5 3.5v79a3.5 3.5 0 1 1-7 0V7h-11.295l4.289 75.301A3.5 3.5 0 0 1 126 86h-16.5a3.5 3.5 0 0 1-3.5-3.5V31H92.938l6.038 51.09A3.5 3.5 0 0 1 95.5 86h-15a3.5 3.5 0 0 1-3.494-3.29L73.204 19.5H60.476l7.996 62.556A3.5 3.5 0 0 1 65 86H46.5a3.5 3.5 0 0 1-3.5-3.5v-43h-8.186l3.673 42.7A3.5 3.5 0 0 1 35 86H19.5a3.5 3.5 0 0 1-3.5-3.5V63H7.573l2.887 18.973a3.5 3.5 0 0 1-6.92 1.054l-3.5-23A3.5 3.5 0 0 1 3.5 56h16a3.5 3.5 0 0 1 3.5 3.5V79h8.186l-3.673-42.7A3.5 3.5 0 0 1 31 32.5h15.5A3.5 3.5 0 0 1 50 36v43h11.024l-7.996-62.556A3.5 3.5 0 0 1 56.5 12.5h20a3.5 3.5 0 0 1 3.494 3.29L83.796 79h7.766l-6.038-51.09A3.5 3.5 0 0 1 89 24h20.5a3.5 3.5 0 0 1 3.5 3.5V79h9.295l-4.289-75.301a3.5 3.5 0 0 1 .95-2.602Z" fill="currentcolor"/>
        </symbol>
        <symbol id="il-contextdriven" viewBox="0 0 83 85">
            <title>Context driven</title>
            <path fill-rule="evenodd" clip-rule="evenodd" d="M16.433 19.811c-.693 1.015-1.472 2.064-2.317 3.014a3.5 3.5 0 1 1-5.232-4.65c1.318-1.483 2.335-3.143 3.316-4.742.328-.535.651-1.063.98-1.576.302-.468.646-.977 1.01-1.424.296-.361.916-1.081 1.842-1.526.53-.254 1.3-.486 2.217-.375A3.94 3.94 0 0 1 20.47 9.58c.848.796 1.204 1.81 1.372 2.38a31.27 31.27 0 0 1 1.086 4.355c.096.534.165.952.223 1.3v.002l.083.495c.073-.067.153-.144.241-.233.728-.734 1.465-1.717 2.325-2.864l.087-.115c.415-.555.873-1.161 1.323-1.696.423-.502 1-1.14 1.684-1.634.583-.422 2.091-1.35 3.98-.756 1.851.582 2.608 2.174 2.902 2.957.282.752.77 1.107 1.453 1.306.373.11.774.154 1.135.15.26-.003.43-.03.5-.044.043-.02.119-.059.236-.121.258-.14.579-.323.994-.563l.123-.07a53.044 53.044 0 0 1 2.842-1.56c1.088-.544 2.405-1.123 3.738-1.434 1.227-.286 3.196-.52 5.003.564 1.059.635 1.998 1.57 2.64 2.227.246.252.462.477.659.683.145.151.28.292.409.424a3.5 3.5 0 0 1 4.708 4.545c-.317.74-.824 1.613-1.68 2.287a4.517 4.517 0 0 1-3.22.962c-1.004-.089-1.812-.484-2.347-.808a9.714 9.714 0 0 1-1.436-1.093c-.56-.503-1.174-1.144-1.67-1.662l-.43-.447a14.025 14.025 0 0 0-.932-.89 3.426 3.426 0 0 0-.113.025c-.542.127-1.287.423-2.199.878-.861.431-1.71.92-2.52 1.388l-.077.045c-.398.23-.811.467-1.178.664-.319.171-.809.427-1.308.593-1.458.486-3.687.604-5.837-.023-1.378-.402-2.826-1.147-4.029-2.368-.761 1.017-1.743 2.319-2.795 3.38-1.04 1.048-2.928 2.69-5.446 2.69-1.37 0-2.986-.244-4.34-1.365-1.33-1.1-1.813-2.566-2.055-3.535a15.69 15.69 0 0 1-.172-.788Zm3.242-5.02a.341.341 0 0 1-.037.04.271.271 0 0 1 .037-.04Zm-4.551-.866a.345.345 0 0 1-.023-.064c0-.001.009.018.023.064Zm14.099 2.304.005.012a.41.41 0 0 1-.005-.012Zm19.54 1.966h-.029a.11.11 0 0 1 .029 0Zm7.833-1.864a.1.1 0 0 1 .005.003l-.005-.003ZM27.393 47.316c-.5-.166-.99-.421-1.308-.593-.367-.197-.78-.435-1.178-.664l-.078-.045c-.81-.467-1.658-.957-2.52-1.387-.91-.456-1.656-.752-2.198-.879a3.426 3.426 0 0 0-.113-.024c-.214.18-.516.464-.932.89-.127.13-.273.282-.43.446-.496.518-1.11 1.16-1.67 1.663-.393.353-.88.755-1.436 1.092-.535.324-1.343.72-2.347.808a4.517 4.517 0 0 1-3.22-.962c-.856-.674-1.363-1.546-1.68-2.286a3.5 3.5 0 0 1 4.708-4.545l.408-.424c.198-.206.414-.432.66-.684.642-.657 1.581-1.592 2.64-2.227 1.807-1.084 3.776-.85 5.002-.564 1.334.312 2.65.89 3.74 1.435a54.145 54.145 0 0 1 2.841 1.559l.123.07c.415.24.736.424.994.563.15.08.232.12.263.135l.014.006a3.5 3.5 0 0 1-2.283 6.617Zm-7.656-3.625h.029a.11.11 0 0 0-.029 0Zm-7.833-1.864a.1.1 0 0 0-.005.003l.005-.003Z" fill="currentcolor"/>
            <path fill-rule="evenodd" clip-rule="evenodd" d="M0 3.5A3.5 3.5 0 0 1 3.5 0h69A3.5 3.5 0 0 1 76 3.5v18a3.49 3.49 0 0 1-.461 1.738c.296.28.588.564.873.85 1.766 1.765 3.47 3.764 4.63 5.591.566.894 1.118 1.924 1.42 2.979.256.895.62 2.843-.729 4.528-1.14 1.425-2.564 2.89-3.872 4.085A31.254 31.254 0 0 1 76 42.853V81a3.5 3.5 0 0 1-3.5 3.5h-69A3.5 3.5 0 0 1 0 81V3.5Zm69 46.168V77.5H28.353l17.538-4.615a3.5 3.5 0 0 0 1.628-.955L69 49.668ZM24.197 77.5a3.499 3.499 0 0 1-1.598-3.825l4-16.5a3.5 3.5 0 0 1 .884-1.607L55.807 26.25c2.571-3.548 4.76-5.293 7.051-7.12l.004-.002.452-.361c1.685-1.348 3.633-.985 4.528-.729.391.112.78.258 1.158.427V7H7v70.5h17.197Zm35.091-44.779L35.93 56.9c1.422.858 2.913 1.994 4.545 3.626a3.5 3.5 0 0 1-4.95 4.95c-1.143-1.143-2.143-1.927-3.123-2.528l-1.618 6.675 12.378-3.257 26.82-27.795a3.5 3.5 0 0 1 .953-.7c-.002 0-.002 0 0 0 .01-.007.075-.042.197-.124a9.83 9.83 0 0 0 .525-.383 24.23 24.23 0 0 0 1.482-1.26 33.696 33.696 0 0 0 2.245-2.254 10.26 10.26 0 0 0-.253-.42c-.794-1.25-2.122-2.845-3.668-4.392-1.547-1.546-3.142-2.874-4.393-3.668-.172-.109-.325-.2-.46-.276-.956.768-1.799 1.471-2.633 2.302 2.051 1.369 4.079 3.273 5.562 5.869a3.5 3.5 0 1 1-6.078 3.472c-1.023-1.79-2.573-3.104-4.172-4.015Zm6.58-7.964c0-.001.015.002.049.011a.277.277 0 0 1-.05-.011Zm9.875 9.875a.277.277 0 0 1-.011-.049c.01.034.012.05.011.05Z" fill="currentcolor"/>
        </symbol>
        <symbol id="il-everlastingcontent" viewBox="0 0 79 86">
            <title>Everlasting content</title>
            <path d="M23.625 28.511c-1.222.674-2.285 1.984-3.453 4.894a3.5 3.5 0 1 1-6.496-2.608c1.372-3.418 3.218-6.567 6.566-8.415 3.296-1.819 7.35-1.99 12.215-1.24a3.5 3.5 0 0 1-1.067 6.918c-4.315-.666-6.492-.252-7.765.451Zm9.774 12.564c3.09-3.09 7.273-4.577 11.245-4.826 4.148-.26 7.246.854 8.407 1.925a3.5 3.5 0 1 0 4.745-5.146c-3.13-2.886-8.468-4.086-13.59-3.765-5.298.332-11.22 2.324-15.758 6.863a3.5 3.5 0 1 0 4.95 4.95Z" fill="currentcolor"/>
            <path fill-rule="evenodd" clip-rule="evenodd" d="m50.453 66.733-2.53 4.743V79.1a3.5 3.5 0 0 1-.301 1.421c-1.505 3.386-4.538 5.44-7.873 5.416-3.359-.023-6.349-2.159-7.615-5.641a3.5 3.5 0 0 1-.21-1.196v-7.272l-5.733-7.166c-3.018.694-6.2.489-8.796-.828-1.736-.88-3.27-2.305-4.11-4.322a8.365 8.365 0 0 1-.556-2.027c-1.614-.444-3.035-1.3-4.125-2.141-2.247-1.735-4.108-4.139-5.206-6.198C-1.214 40.501-1.67 29.702 5.41 17.72c2.61-4.415 6.662-9.613 12.994-10.565C20.503 4.25 23.82 2.576 26.918 1.6 30.74.393 34.998 0 38.486 0c4.605 0 8.911 1.662 12.199 3.933 2.199 1.519 4.2 3.497 5.481 5.714 1.667.025 3.293.444 4.735 1 2.496.963 4.96 2.53 7.133 4.254 2.19 1.737 4.21 3.734 5.809 5.677 1.53 1.86 2.923 3.97 3.5 5.934.917 3.116 1.615 7.554 1.244 11.99-.309 3.68-1.395 7.75-4.101 10.942a8.85 8.85 0 0 1 .042 2.156c-.156 1.581-.69 3.139-1.402 4.525-1.382 2.692-3.809 5.437-6.856 6.707-.919.382-1.758.737-2.53 1.065-3.03 1.282-5.048 2.136-6.89 2.554-1.99.453-3.847.429-6.397.282ZM29.023 8.275c-3.022.953-4.715 2.274-5.35 3.673A3.5 3.5 0 0 1 20.485 14c-3.458 0-6.302 2.63-9.05 7.28-5.919 10.018-5.25 18.22-1.862 24.573.696 1.304 1.947 2.9 3.307 3.95 1.475 1.138 2.172 1 2.313.944a3.5 3.5 0 0 1 4.641 4.268c-.315 1.04-.183 1.58-.088 1.807.096.231.308.513.815.77 1.127.572 3.259.728 5.504-.217a3.5 3.5 0 0 1 4.09 1.04l8 10a3.5 3.5 0 0 1 .768 2.186v7.75c.13.212.263.339.366.414a.854.854 0 0 0 .508.174c.214 0 .69-.094 1.126-.717v-7.621a3.5 3.5 0 0 1 .411-1.647l1.7-3.186-.085-.022c-2.4-.6-5.344-1.754-9.327-4.144a3.5 3.5 0 1 1 3.601-6.002c3.518 2.11 5.823 2.955 7.424 3.355.808.203 1.498.307 2.178.392l.401.048c.488.057 1.072.126 1.63.226 4.025.251 5.144.3 6.441.004 1.187-.27 2.448-.801 5.3-2.005a704.99 704.99 0 0 1 2.98-1.25c1.106-.461 2.46-1.767 3.321-3.442.41-.798.612-1.503.663-2.015.03-.313-.001-.466-.014-.51a3.5 3.5 0 0 1 .697-4.592c1.984-1.653 3.075-4.426 3.366-7.894.287-3.426-.265-6.988-.983-9.43-.175-.595-.846-1.826-2.191-3.462-1.277-1.552-2.943-3.204-4.753-4.64-1.826-1.449-3.674-2.578-5.302-3.207-1.694-.653-2.678-.589-3.14-.411a3.5 3.5 0 0 1-4.673-2.508c-.233-1.048-1.434-2.89-3.863-4.567C44.384 8.088 41.44 7 38.486 7c-3.055 0-6.547.356-9.463 1.275Z" fill="currentcolor"/>
        </symbol>
        <symbol id="il-monthlyrate" viewBox="0 0 63 65">
            <title>Monthly rate</title>
            <path fill-rule="evenodd" clip-rule="evenodd" d="M31.745 9.01a3.5 3.5 0 0 1 3.746 3.235l.339 4.632c3.378.976 6.49 3.16 8.548 6.13a3.5 3.5 0 0 1-5.756 3.985 8.633 8.633 0 0 0-2.212-2.187l.282 3.861c1.546.063 3.115.216 4.461.582 1.314.357 2.921 1.039 4.076 2.49 1.255 1.579 1.532 3.489 1.223 5.337-.813 4.879-4.127 8.653-8.37 10.581l.409 5.589a3.5 3.5 0 0 1-6.982.51l-.343-4.686c-4.736-.119-9.607-2.42-13.078-7.628a3.5 3.5 0 0 1 5.824-3.882c1.903 2.854 4.348 4.193 6.739 4.463l-.47-6.427c-1.92-.063-3.974-.258-5.66-.863-1.366-.49-2.932-1.395-3.893-3.111-.975-1.742-.972-3.677-.523-5.47.78-3.123 2.3-5.613 4.441-7.328a11.289 11.289 0 0 1 4.252-2.122l-.289-3.946a3.5 3.5 0 0 1 3.236-3.746Zm-2.822 15.276a4.2 4.2 0 0 1 .409-.29l.334 4.568c-1.21-.064-2.132-.188-2.78-.42a3.292 3.292 0 0 1-.049-.018 3.54 3.54 0 0 1 .058-.277c.47-1.877 1.262-2.95 2.028-3.563Zm8.576 15.402-.292-3.987c.832.054 1.535.145 2.109.301.079.022.147.043.207.062-.263 1.374-.993 2.624-2.024 3.624ZM26.814 28.397l.002.018-.002-.018Z" fill="currentcolor"/>
            <path fill-rule="evenodd" clip-rule="evenodd" d="M62.5 32.5c0-6.993-2.489-15.153-7.582-21.503C49.736 4.54 41.82-.063 31.31.505 10.614 1.624.5 18.001.5 32.5c0 7.194 2.336 15.241 7.392 21.561C13.029 60.483 20.894 65 31.5 65c10.645 0 18.504-4.675 23.62-11.14 5.034-6.364 7.38-14.398 7.38-21.36ZM31.689 7.495c7.991-.432 13.825 2.966 17.768 7.883C53.49 20.403 55.5 26.993 55.5 32.5c0 5.538-1.904 12.004-5.87 17.016C45.746 54.426 39.855 58 31.5 58c-8.394 0-14.279-3.483-18.142-8.312C9.414 44.758 7.5 38.306 7.5 32.5c0-11.501 7.886-24.124 24.189-25.005Z" fill="currentcolor"/>
        </symbol>
        <symbol id="il-subscribe-plan" viewBox="0 0 67 30">
            <title>Subscribe to plan</title>
            <path fill="currentcolor" fill-rule="evenodd" d="M29.275 2.144c.372-.233 2.881-.836 5.577-1.347 4.135-.79 6.645-.883 29.321-.743l1.209 1.393c1.068 1.3 1.161 1.672.929 4.876-.093 1.904-.604 7.013-1.069 11.285-.743 6.223-1.115 8.034-1.812 8.963-.604.743-1.998 1.44-3.718 1.904-1.951.558-4.647.79-8.829.79-3.346 0-8.132-.279-10.688-.604-2.555-.325-5.715-.79-6.97-1.068-1.301-.279-2.742-.836-3.206-1.254-.511-.418-1.301-1.579-1.766-2.6-.697-1.58-.837-3.066-.837-9.289 0-4.226.28-8.405.558-9.66.325-1.207.883-2.414 1.301-2.646Zm2.928 3.436c.093-.279 1.627-.836 3.392-1.254 2.51-.604 5.67-.79 14.684-.79 7.25-.046 11.618.14 11.757.418.14.279-.047.604-.418.79-.326.232-2.324 2.368-4.415 4.783-2.09 2.415-4.786 5.201-5.994 6.177-1.208.975-2.603 1.904-3.114 2.043-.557.14-2.37-.51-4.786-1.765-2.137-1.114-4.88-2.786-6.04-3.668-1.209-.93-2.882-2.694-3.718-3.948-.79-1.3-1.44-2.554-1.348-2.786Zm27.23 6.826c-1.626 1.858-3.903 4.226-5.064 5.341-1.116 1.068-2.788 2.276-3.718 2.74-1.022.465-2.37.697-3.717.557-1.348-.139-3.485-.975-6.227-2.507-2.277-1.254-5.437-3.483-6.97-4.97-1.534-1.486-2.882-2.693-2.928-2.693-.093 0-.14 1.95-.14 4.319 0 2.368.186 5.108.372 6.083.186 1.115.697 1.997 1.255 2.276.511.232 2.835.743 5.112 1.115 2.323.371 7.016.79 10.455.928 4.554.233 7.11.14 9.294-.325 1.673-.371 3.392-1.021 3.857-1.486.604-.603.79-1.579.79-3.715.046-1.579.279-4.644.604-6.78.325-2.09.418-3.948.279-4.04-.186-.093-1.627 1.3-3.253 3.157Z" clip-rule="evenodd"/>
            <path fill="currentcolor" d="M5.39 6.416c-.418.325-.697.929-.557 1.3.14.372.697.976 1.3 1.3.744.419 2.882.558 7.482.465 5.53-.14 6.552-.278 6.97-.929.419-.65.372-.975-.278-1.625-.697-.697-1.859-.836-7.435-.975-4.926-.093-6.831 0-7.482.464ZM5.344 17.33c-.511.093-1.44.418-1.998.743-.604.325-1.069.836-1.069 1.114 0 .325.465.836.976 1.068.511.233 2.51.465 4.507.418 1.998 0 5.065-.278 6.878-.603 1.765-.325 3.81-.836 4.507-1.161.697-.279 1.301-.65 1.301-.883 0-.186-.79-.464-1.766-.65-.975-.186-4.135-.325-7.063-.325-2.974.047-5.762.14-6.273.279Zm3.02 8.266c-1.951.279-4.6.883-5.948 1.3C1.07 27.314 0 27.918 0 28.15c0 .233.976.604 2.184.79 1.208.14 3.16.278 4.322.278 1.115 0 3.531-.278 5.344-.557 2.184-.371 3.578-.836 4.321-1.579 1.069-.975 1.115-1.021.233-1.625-.465-.325-1.673-.558-2.696-.511-1.022.046-3.438.325-5.344.65Z"/>
        </symbol>
        <symbol id="il-iteration" viewBox="0 0 87 29">
            <title>Satisfaction iteration process</title>
            <path fill="currentcolor" d="M66.951.51c-.51.233-.882.651-.836.883.046.279.418 1.208.79 2.09.465 1.084 1.007 1.625 1.626 1.625.79 0 .93-.325.93-1.996 0-1.069-.233-2.23-.558-2.555C68.578.232 68.206 0 68.067 0c-.14 0-.65.232-1.116.51Zm13.848 2.927c-.511.325-1.022 1.16-1.115 1.81-.233 1.022-.093 1.255.79 1.255.697 0 1.254-.465 1.766-1.394.557-1.16.557-1.486.046-1.857-.403-.31-.898-.248-1.487.186ZM61.468 5.062c-.046-.418.093-.882.325-1.022.186-.185.604-.325.883-.325.28 0 .744.232 1.07.558.324.325.603.928.603 1.3 0 .371-.279.975-.604 1.254-.465.464-.743.418-1.394-.232-.465-.418-.883-1.115-.883-1.533Zm6.599 4.691c.743 0 2.137-.511 3.067-1.161.929-.65 2.37-1.162 3.16-1.162s1.905.326 2.462.697c.883.557 1.023 1.115 1.023 3.112 0 1.857-.326 3.018-1.348 4.783a154.538 154.538 0 0 0-2.556 4.505c-.65 1.254-1.394 2.322-1.626 2.461-.279.14-1.766-.882-3.346-2.23a73.003 73.003 0 0 1-4.229-3.807c-.743-.743-1.44-1.904-1.58-2.554-.139-.65-.139-1.626 0-2.23.186-.603.976-1.3 1.952-1.718.883-.371 2.23-.696 3.02-.696Zm16.031-1.301a47.95 47.95 0 0 1-.544.291l-.002.001c-.259.137-.447.237-.476.265-.038.038-.137.414-.273.927v.005l-.099.369c-.232 1.16-.093 1.3.883 1.3.604 0 1.487-.371 1.905-.836.419-.418.697-1.207.605-1.672-.093-.51-.372-.975-.605-1.021-.278-.093-.883.093-1.394.371Zm-32.435 3.065c-.046-.418.279-.836.744-.929.51-.092 1.208-.046 1.626.14.418.186 1.627 1.254 2.742 2.368 1.069 1.115 1.951 2.369 1.951 2.787 0 .464-.232 1.3-.51 1.857-.28.604-1.302 1.997-2.185 3.158-.93 1.161-1.951 2.369-2.37 2.694-.418.325-.883.557-1.068.557-.186 0-.651-.51-1.023-1.16-.65-1.07-.65-1.255.233-2.323.51-.65.836-1.3.743-1.532-.14-.186-1.905-.465-3.95-.697-3.345-.279-3.857-.465-4.46-1.486-.419-.65-.605-1.393-.465-1.626.093-.278 2.137-.464 4.553-.464 2.37 0 4.462-.14 4.647-.372.14-.185-.046-.743-.418-1.253-.372-.511-.743-1.3-.79-1.719Zm-30.576.65c0 .836.325 1.858.697 2.23.557.51.604.835.232 1.16-.279.233-2.091.558-3.996.697-2.602.186-3.625.418-3.764.929-.14.372 0 1.161.279 1.718.51 1.022.743 1.068 4.507.836 2.37-.14 3.996-.046 4.182.232.093.233-.093.836-.464 1.254-.372.465-.697 1.626-.697 2.555 0 1.114.186 1.764.557 1.764.325 0 1.022-.464 1.58-1.021.558-.604 1.952-2.462 3.16-4.227 1.162-1.718 2.138-3.529 2.138-4.04 0-.65-1.116-1.672-3.393-3.25-1.858-1.255-3.717-2.323-4.182-2.323-.604 0-.836.372-.836 1.486ZM32.24 13.84c.51-.697 1.58-1.487 2.462-1.719.837-.232 1.952-.325 2.463-.186.35.095.872.277 1.346.442.22.077.43.15.606.208.557.233 1.347.883 1.765 1.44.372.604.698 1.718.744 2.461.046.743-.093 1.904-.279 2.555-.186.65-.79 1.625-1.348 2.229-.743.743-1.533 1.021-2.834 1.021-1.022 0-2.37-.325-2.928-.696-.557-.372-1.44-1.533-1.951-2.554-.511-1.022-.976-2.322-.976-2.926 0-.557.418-1.58.93-2.276ZM.036 13.56c-.092.326 0 2.37.186 4.552.168 1.575.384 3.296.526 4.428l.002.01v.003l.002.02c.053.42.096.758.12.972.233 1.486.326 1.533 2.603 1.533 1.255 0 3.346-.232 4.647-.465 1.44-.278 2.602-.835 3.16-1.532.743-.929.743-1.393.325-4.97-.279-2.182-.65-4.225-.836-4.55-.233-.372-1.859-.558-5.437-.558-3.625 0-5.112.186-5.298.558Zm79.044 6.41c-.511-.65-.79-1.44-.604-1.765.139-.279.883-.558 1.533-.558.697 0 1.673.233 2.138.558.51.371.79 1.021.697 1.764-.14.93-.419 1.162-1.487 1.162-.883 0-1.673-.419-2.277-1.162Zm-17.658 2.879c.418-.697 1.022-1.393 1.254-1.58.28-.185.79-.37 1.209-.37.371-.047.929.232 1.254.556.418.465.325 1.022-.557 2.694-.605 1.161-1.395 2.322-1.813 2.554-.465.325-.883.279-1.44-.232-.419-.371-.744-1.068-.744-1.532 0-.418.372-1.347.837-2.09Zm12.918.696c-.232.14-.372.558-.325.93.046.324.604 1.253 1.254 1.996.604.743 1.348 1.393 1.627 1.393.232 0 .697-.51 1.022-1.114.511-.976.465-1.347-.232-2.322-.465-.743-1.255-1.208-1.906-1.208-.604 0-1.254.14-1.44.325Zm-7.017 4.087c-.465-.65-.511-1.16-.186-1.765.28-.464 1.023-.79 1.859-.79 1.162 0 1.394.187 1.394 1.162 0 .79-.418 1.347-1.255 1.718-1.022.511-1.254.511-1.812-.325Z"/>
        </symbol>
        <symbol id="il-repurposing-board" viewBox="0 0 50 28">
            <title>Repurposing board</title>
            <path fill="currentcolor" fill-rule="evenodd" d="M25.995.65c-.836.65-.93 1.347-1.022 12.91-.14 11.193-.047 12.307.697 13.05.65.65 1.58.836 4.647.79 2.57 0 3.965-.186 4.182-.557.186-.325.557-6.363.883-13.375.279-7.013.418-12.91.325-13.096C35.614.139 33.616 0 31.246 0c-2.974 0-4.6.186-5.251.65Zm2.138 17.508c0-3.019.14-7.477.325-9.985l.279-4.551h3.578v7.57c0 4.133-.14 8.638-.697 12.446l-3.485-.047v-5.433ZM13.31 1.997c.278-.279 1.3-.604 2.183-.743.93-.093 2.881-.186 7.063-.325v12.446c0 9.102-.14 12.539-.557 13.003-.372.325-1.905.558-4.182.558-3.253 0-3.718-.093-4.369-1.022-.557-.883-.697-3.019-.65-12.214 0-7.663.14-11.331.511-11.703Zm2.787 21.64V4.598h3.718v7.988c0 4.412-.186 8.73-.372 9.567-.279 1.346-.51 1.486-3.346 1.486ZM4.34 2.276c-2.23.418-4.182.836-4.275.975-.139.14-.046 3.994.186 8.591.233 4.598.558 9.428.697 10.682.14 1.3.419 2.554.605 2.879.185.325 1.998.697 4.507.882 3.764.279 4.229.233 4.74-.557.464-.65.604-3.808.604-12.12 0-10.822-.047-11.286-.93-11.75-.51-.233-1.208-.465-1.533-.418-.325.046-2.416.418-4.6.836Zm1.023 3.39-2.51.417c.512 3.715.837 7.43 1.023 10.728l.372 5.898h3.95c.372-13.19.325-17.044.093-17.183-.233-.14-1.534-.093-2.928.14Z" clip-rule="evenodd"/>
            <path fill="currentcolor" d="M42.77 7.71c-.232.185-.372 1.346-.325 2.6.046 2.043-.047 2.229-.976 2.229-.558 0-1.301.186-1.626.372-.372.185-.512.789-.372 1.625.186.929.604 1.347 1.673 1.625 1.115.232 1.394.558 1.347 1.486 0 .65.419 1.672.93 2.322.93 1.162.976 1.162 1.673.233.371-.511.697-1.626.697-2.415 0-1.347.14-1.533 1.161-1.533.744 0 1.395-.418 1.86-1.16.37-.651.557-1.487.464-1.858-.186-.465-.837-.697-1.859-.697h-1.626c-.233-4.69-.372-4.876-1.44-5.016-.651-.093-1.348 0-1.58.186Z"/>
        </symbol>
        <symbol id="il-superfast-delivery" viewBox="0 0 84 41">
            <title>Super fast delivery</title>
            <path fill="currentcolor" fill-rule="evenodd" d="M51.5 9c-.738 1.704 3.417 2.971 5.072 3.202 1.13.184 2.496.966 3.91 2.254 1.224 1.058 2.59 2.852 3.061 3.91.11.226.221.48.337.746.481 1.105 1.055 2.423 2.102 2.822 1.3.495 2.537-1.938 2.79-2.877.193-.754.323-1.554.44-2.284.171-1.051.318-1.956.596-2.363.39-.594 1.623-1.188 2.182-1.457l.086-.041.04-.02c1.423-.772 3.882-2.188 3.882-2.683 0-.495-1.91-1.658-3.044-1.98-1.13-.323-2.527-.873-3.422-1.793-.627-.582-.777-1.566-.904-2.402-.064-.42-.123-.803-.233-1.08-.034-.074-.077-.19-.13-.33C67.951 1.783 67.285 0 65.982 0c-1.466 0-1.627 1.12-1.806 2.354l-.02.14c-.236 1.427-.754 2.347-2.026 3.497-.942.874-2.214 1.794-2.873 2.024-.66.276-2.026.506-3.062.506-.546.015-1.138-.1-1.716-.212-1.269-.246-2.472-.48-2.979.691Zm20.44 1.209c-4.057 0-5.743 5.236-5.958 6.775-.292-2.034-2.156-6.28-6.725-6.28 5.076-.495 6.725-3.089 6.725-5.754l.027.13c.495 2.425.948 4.642 5.931 5.129Z" clip-rule="evenodd"/>
            <path fill="currentcolor" fill-rule="evenodd" d="M65.457 27.647c-1.58-.22-2.788-2.064-2.375-2.523.08-.09.143-.18.203-.268.251-.364.474-.687 1.813-.722.989 0 2.293-.22 2.922-.483.63-.22 1.844-1.098 2.743-1.932 1.214-1.098 1.709-1.976 1.933-3.338l.02-.134c.17-1.178.325-2.247 1.724-2.247 1.244 0 1.88 1.702 2.18 2.505.05.134.09.244.123.316.105.263.161.629.222 1.03.122.798.265 1.736.864 2.292.854.878 2.187 1.404 3.266 1.712 1.082.308 2.905 1.417 2.905 1.89 0 .472-2.347 1.824-3.705 2.561l-.12.058c-.534.257-1.71.824-2.083 1.39-.266.39-.406 1.253-.568 2.257-.113.697-.237 1.46-.421 2.18-.242.896-1.422 3.219-2.663 2.746-1-.38-1.547-1.639-2.006-2.693a18.454 18.454 0 0 0-.322-.712c-.45-1.01-1.754-2.723-2.923-3.733-1.349-1.23-2.653-1.976-3.732-2.152Zm8.983 4.565c.205-1.47 1.814-6.467 5.687-6.467-4.756-.465-5.189-2.582-5.662-4.896l-.025-.124c0 2.544-1.574 5.02-6.42 5.492 4.362 0 6.14 4.053 6.42 5.995ZM27.324 16.17c2.044.14 6.04-.046 9.2-.417 3.067-.372 8.83-.697 12.872-.743 6.738-.047 7.389.046 8.272.882.51.557.929 1.533.929 2.461 0 .79.418 3.901.93 6.827.51 2.926.929 5.945.929 6.734 0 .79-.372 1.765-.837 2.183-.418.464-1.533 1.021-2.416 1.3-.93.279-4.368.883-7.667 1.393-3.346.511-7.947 1.347-10.224 1.858-2.323.557-5.854 1.3-7.9 1.625-2.044.372-4.042.604-4.414.465-.418-.093-.976-.79-1.3-1.486-.326-.697-.79-2.787-1.07-4.552-.278-1.764-.697-6.455-.929-10.31-.232-3.9-.325-7.43-.186-7.801.186-.558.883-.65 3.81-.418Zm9.34 3.065c-2.463.279-4.6.697-4.74.883-.14.185.326.743 1.023 1.254.697.464 2.741 1.532 4.507 2.322 1.812.835 3.625 1.671 4.09 1.904.418.232 1.208.418 1.719.418.51 0 1.533-.558 2.23-1.254.744-.697 2.23-2.369 3.392-3.716l2.092-2.46c-7.575.138-11.804.37-14.313.65Zm6.506 10.542c1.254 0 2.23-.743 6.459-4.876 3.067-3.019 5.158-4.69 5.437-4.458.278.232.697 1.81.93 3.576.185 1.764.603 4.086.928 5.155.341 1.33.357 2.136.047 2.415-.232.232-3.485.882-7.203 1.44-3.67.51-6.83 1.02-6.97 1.114-.093.093-1.766.51-3.718.928-1.905.419-5.018 1.022-6.877 1.3-2.927.512-3.439.465-3.81-.139-.186-.371-.65-3.483-.93-6.966-.325-3.436-.464-6.548-.372-6.873.093-.418.837-.186 2.463.929 1.302.882 3.067 1.997 3.95 2.508.93.51 2.881 1.44 4.415 2.043 1.533.604 3.02 1.254 3.253 1.486.278.232 1.161.418 1.998.418Z" clip-rule="evenodd"/>
            <path fill="currentcolor" d="M5.158 18.4c-4.74.51-4.926.557-5.065 1.672-.093.65.14 1.44.465 1.765.51.464 1.951.464 7.156.092a806.16 806.16 0 0 0 8.364-.696c1.023-.14 2.416-.65 3.114-1.161 1.068-.79 1.161-1.068.697-1.626-.465-.603-1.534-.696-5.205-.65-2.556.047-6.877.325-9.526.604Zm3.02 7.477c.512-.372 1.534-.883 2.324-1.115.743-.232 2.834-.464 4.647-.51 2.556-.047 3.485.139 4.414.882 1.116.882 1.116.929.326 1.764-.744.697-1.627.836-6.134.836-3.625 0-5.53-.185-5.948-.557-.465-.51-.418-.743.371-1.3Zm-2.323 8.406c-1.812.417-3.857 1.021-4.554 1.393-.697.371-1.301.79-1.301 1.021 0 .186.883.465 1.998.604 1.069.186 5.809.186 10.502 0 6.692-.232 8.643-.418 9.154-.975.605-.604.558-.836-.278-1.626-.883-.789-1.72-.928-6.645-1.021-3.718-.047-6.738.14-8.876.604Z"/>
        </symbol>
        <symbol id="il-fixed-rate" viewBox="0 0 37 38">
            <title>Fixed monthly rate</title>
            <path fill="currentcolor" fill-rule="evenodd" d="M17.42 6.07c-.75.375-.657.75-.352 1.97.101.405.226.905.351 1.53v.058c-1.346.045-1.84.4-2.213.67-.086.063-.166.12-.25.169-1.115.65-2.276 1.811-2.927 2.972-.93 1.764-.976 1.997-.325 3.297.372.79 1.208 1.626 1.859 1.858.65.232 1.672.464 2.323.464h1.533v.012c0 .752.252 3.138.502 5.457a5.437 5.437 0 0 1-1.245-.36c-.418-.047-1.394-.79-2.184-1.672-1.069-1.254-1.627-1.58-2.463-1.393-.557.139-1.022.603-1.022.975 0 .371.372 1.44.79 2.368.557 1.068 1.487 1.95 2.695 2.555 1.022.464 2.184.882 2.556.882.32 0 .676.023 1.055.047l.182.011c.081.803.134 1.401.134 1.63 0 1 1.5 1.5 2 1s.5-1 .5-2.5v-.206c.59-.113 1.17-.32 1.705-.679 1.115-.371 1.952-1.114 2.649-2.368.604-.975 1.069-2.508 1.069-3.344 0-.79-.372-2.09-.837-2.88-.418-.742-1.348-1.671-2.091-2.089-.697-.372-1.673-.697-2.184-.697-.082 0-.244.02-.465.047-.03-.699-.063-1.42-.095-2.134.603.316 1.343.78 1.629 1.066.836.743.93.743 1.533-.14.372-.51.65-1.3.65-1.764 0-.418-.557-1.208-1.3-1.765-.697-.51-1.72-1.022-2.324-1.161a32.365 32.365 0 0 0-.36-.062 75.068 75.068 0 0 1-.08-2.324c0-1.5-1.999-2-2.999-1.5Zm-2.078 9.065c0-1.748 1.012-2.204 2.077-2.214v3.212c-1.135-.025-2.077-.259-2.077-.998Zm5.577 5.435c0-.34-.01-.8-.025-1.346.942.227 1.413.63 1.638.854.325.326.558 1.022.558 1.533 0 .51-.233 1.207-.558 1.486-.076.076-.14.15-.203.224-.21.242-.422.489-1.1.846a2.703 2.703 0 0 1-.31.137V20.57Z" clip-rule="evenodd"/>
            <path fill="currentcolor" fill-rule="evenodd" d="M14.39.418C13.089.79 10.998 1.58 9.743 2.23c-1.301.65-3.253 2.09-4.368 3.205-1.069 1.114-2.602 3.204-3.3 4.597-.695 1.393-1.532 3.9-1.811 5.572-.371 2.369-.371 3.762.14 6.27.325 1.765 1.301 4.505 2.09 6.037.837 1.533 2.278 3.576 3.207 4.551.93.976 2.556 2.276 3.578 2.88 1.023.65 2.881 1.44 4.183 1.857 1.254.372 3.578.697 5.111.697 1.534 0 3.81-.325 5.112-.743 1.254-.465 3.438-1.533 4.786-2.462 1.394-.928 3.253-2.693 4.182-3.993.93-1.254 2.23-3.67 2.974-5.341 1.023-2.508 1.255-3.715 1.255-7.059 0-3.112-.233-4.737-1.023-6.734-.557-1.486-1.812-3.669-2.788-4.876-.929-1.254-2.509-2.74-3.485-3.39-.976-.65-2.834-1.58-4.182-2.09C24.055.697 21.546.186 19.827.047c-1.813-.14-4.09.046-5.437.371Zm-3.253 5.015c.79-.418 2.23-.975 3.253-1.346 1.069-.326 3.3-.511 5.112-.465 2.09.093 4.089.511 5.576 1.161 1.301.604 3.253 1.904 4.368 2.972 1.069 1.115 2.416 2.74 2.881 3.716.511.975 1.115 2.832 1.394 4.18.419 1.857.419 3.064-.046 4.968-.279 1.44-1.208 3.809-1.998 5.341-.837 1.486-2.324 3.437-3.346 4.32-1.023.835-2.881 2.089-4.182 2.693-1.813.882-3.02 1.16-5.67 1.16-2.602 0-3.95-.278-5.808-1.16-1.348-.65-3.392-2.044-4.508-3.158-1.161-1.115-2.602-3.251-3.345-4.877-1.07-2.322-1.348-3.575-1.348-6.27 0-1.95.325-4.318.79-5.711.558-1.58 1.534-3.019 3.16-4.551 1.255-1.254 2.974-2.601 3.717-2.973Z" clip-rule="evenodd"/>
        </symbol>
        <symbol id="il-top-quality" viewBox="0 0 36 39">
            <title>Top quality content</title>
            <path fill="currentcolor" fill-rule="evenodd" d="M15.183 9.586c-.393.437.758 2.193 2.263 2.403 1.028.167 2.27.878 3.554 2.05 1.114.961 2.355 2.592 2.784 3.554.1.206.2.436.306.678.437 1.005.96 2.203 1.911 2.566 1.181.45 2.306-1.762 2.536-2.616.175-.686.293-1.413.4-2.076.156-.956.289-1.778.542-2.149.355-.54 1.476-1.08 1.984-1.324.043-.02.081-.04.114-.056 1.293-.701 3.529-1.989 3.529-2.439 0-.45-1.736-1.507-2.767-1.8-1.027-.293-2.297-.793-3.11-1.63-.571-.53-.707-1.423-.823-2.184-.058-.381-.111-.729-.211-.98-.032-.069-.07-.173-.119-.301-.285-.765-.89-2.386-2.075-2.386-1.333 0-1.48 1.019-1.642 2.14l-.019.128c-.214 1.297-.685 2.133-1.841 3.179-.857.795-2.013 1.631-2.612 1.84-.6.251-1.842.46-2.784.46-1.275.034-1.487.341-1.725.688-.058.084-.118.17-.195.255Zm16.234.591c-3.688 0-5.22 4.76-5.416 6.16-.266-1.85-1.96-5.71-6.114-5.71C24.5 10.177 26 7.82 26 5.397l.024.117c.45 2.205.862 4.22 5.392 4.663ZM10.002 11.35c.234-1.631 2.184-2.88 2.67-2.454.095.084.19.148.284.211.385.26.726.489.764 1.872 0 1.021.232 2.368.511 3.018.232.65 1.162 1.904 2.045 2.833 1.161 1.254 2.09 1.765 3.531 1.997l.143.02c1.246.176 2.377.336 2.377 1.78 0 1.286-1.8 1.942-2.65 2.252a6.133 6.133 0 0 0-.334.128c-.28.108-.666.166-1.09.229-.845.126-1.838.273-2.426.892-.782.742-1.345 2.828-1.698 4.135-.066.246-.125.465-.177.642-.325 1.114-.93 2.554-1.254 3.204-.326.65-.837 1.207-1.116 1.3-.278.047-.79-.51-1.161-1.3-.419-.79-.697-2.136-.697-3.019 0-.882-.186-1.997-.419-2.415l-.061-.124c-.272-.55-.872-1.766-1.472-2.152-.411-.274-1.325-.418-2.387-.586-.737-.117-2.53-.616-3.291-.806-.95-.25-2.497-2.33-1.997-3.61.403-1.033 1.81-.367 2.925-.841.27-.115.526-.224.754-.333 1.068-.464 2.88-1.81 3.95-3.018 1.3-1.393 2.09-2.74 2.276-3.855Zm-4.83 9.278c5.434-.232 6.155 3.51 6.968 5.281.187-2.271 2.687-4.781 5.187-5.281-2.692 0-4.734-3.628-5.187-5.719-.047 1.59-3.327 5.564-6.968 5.719ZM17.86 32.216c-1.127-.157-1.99-1.474-1.696-1.802.057-.064.102-.129.146-.192.179-.26.338-.49 1.294-.515.707 0 1.638-.157 2.088-.346.45-.156 1.316-.784 1.959-1.38.867-.784 1.22-1.411 1.38-2.384l.015-.096c.121-.84.232-1.605 1.231-1.605.889 0 1.343 1.216 1.557 1.79.036.096.065.174.088.225.075.189.115.45.159.736.087.57.189 1.24.617 1.637.61.628 1.562 1.003 2.333 1.223.773.22 2.075 1.012 2.075 1.35 0 .337-1.677 1.303-2.646 1.83l-.087.041c-.38.184-1.221.588-1.488.993-.19.278-.29.895-.405 1.612-.08.497-.17 1.043-.3 1.557-.173.64-1.017 2.3-1.903 1.962-.714-.272-1.105-1.171-1.433-1.924-.08-.182-.155-.355-.23-.509-.321-.721-1.252-1.945-2.087-2.666-.964-.878-1.895-1.412-2.666-1.537Zm6.417 3.26c.146-1.05 1.296-4.62 4.062-4.62-3.397-.33-3.706-1.843-4.044-3.496l-.018-.088c0 1.817-1.125 3.585-4.585 3.922 3.115 0 4.386 2.895 4.585 4.283Z" clip-rule="evenodd"/>
        </symbol>
        <symbol id="il-flexible-scalable" viewBox="0 0 43 34">
            <title>Flexible and scalable plans</title>
            <path fill="currentcolor" d="M26.26 6.237c.14-.279 2.835-1.579 5.902-2.926 3.067-1.3 5.994-2.368 6.505-2.415.512 0 1.162.233 1.441.558.325.325.65 1.114.79 1.765.07.491.353 1.86.668 3.381a1070.396 1070.396 0 0 1 .308 1.495c.418 2.043.883 3.854.976 4.086.139.186-.093.93-.465 1.719-.418.79-.93 1.393-1.162 1.393-.279 0-.65-.371-.883-.79-.232-.464-.65-1.95-.93-3.25-.278-1.347-.742-2.555-.975-2.694-.279-.14-1.487 1.3-2.742 3.158a1133.76 1133.76 0 0 1-5.855 8.684c-1.998 2.926-4.042 5.805-5.344 7.431l-3.856-2.508c-2.091-1.393-4.415-3.019-6.506-4.69l-.883 1.16c-.511.65-1.905 2.323-3.113 3.716-1.209 1.393-2.556 3.158-2.928 3.947-.708 1.505-1.2 3.216-2.69 4.11-.28.139-1.385.417-2.5 0C.856 33.101.563 32.29.238 31.778c-.418-.79-.325-1.16.604-2.368.604-.79 2.23-2.787 3.578-4.412.841-1.014 2.189-2.59 3.524-4.15.804-.94 1.603-1.874 2.285-2.677 2.184-2.554 3.624-3.854 4.275-3.808.51 0 2.695 1.811 8.829 7.941l1.394-1.764c.79-.975 3.067-4.226 5.018-7.199 1.952-3.018 3.44-5.712 3.346-5.944-.186-.278-.93-.14-1.998.418-.976.465-2.23.975-2.788 1.161-.837.232-1.208 0-1.72-.975-.371-.743-.51-1.533-.325-1.765Z"/>
        </symbol>
        <symbol id="il-tailored" viewBox="0 0 35 36">
            <title>Tailored content</title>
            <path fill="currentcolor" fill-rule="evenodd" d="M26.953 1.545c-1.022.417-2.51 1.207-3.206 1.718-.744.51-2.928 2.926-4.88 5.34a193.506 193.506 0 0 1-5.39 6.502c-1.069 1.161-2.323 2.74-2.835 3.576-.65 1.068-1.347 1.533-2.509 1.718-1.115.14-2.137.743-3.16 1.858-.93 1.068-1.487 2.136-1.487 2.972 0 .697-.325 1.719-.697 2.322-.418.558-1.022 1.022-1.394 1.022-.418 0-.93.418-1.162.929-.325.65-.325 1.3.093 2.229.326.697 1.302 1.625 2.23 2.043.884.465 2.65.975 3.95 1.115 1.906.278 2.65.14 4.322-.79 1.07-.603 2.51-1.904 3.114-2.832.604-.976 1.347-2.74 1.58-3.948.278-1.254.51-2.23.604-2.275.046 0 2.184-1.58 4.74-3.484 2.509-1.904 6.133-5.015 8.039-6.92 2.462-2.507 3.67-4.132 4.321-5.897.511-1.347.93-3.251.93-4.18 0-1.114-.326-2.09-.837-2.6-.418-.418-1.626-.883-2.649-1.022-1.208-.14-2.555.046-3.717.604Zm-3.95 7.522c1.44-1.625 3.3-3.343 4.229-3.808.883-.464 1.998-.836 2.416-.882.465 0 .93.371 1.116.79.14.464.046 1.346-.28 1.996-.324.65-1.254 1.997-2.044 2.973-.79 1.021-3.113 3.25-8.875 8.173-.615-1.411-1.098-1.836-2.324-2.23l1.58-2.043c.883-1.114 2.788-3.343 4.182-4.969Zm-9.015 12.075c-.278-.279-.325-.79-.092-1.208.185-.418.78-1.585 1.337-1.493.558.093 1.907 1.175 2 1.5.047.28-1.154.922-1.758 1.2-.697.326-1.161.372-1.487 0ZM6.693 25.74c-.047-.558.418-1.162 1.301-1.58.743-.418 1.766-.65 2.277-.603.65.046.883.371.79 1.021-.093.511.186 1.394.558 1.998.65.928.65 1.16.046 2.182-.372.65-1.348 1.486-3.485 2.554v-2.09c0-1.44-.232-2.136-.697-2.322-.372-.139-.744-.65-.79-1.16Z" clip-rule="evenodd"/>
        </symbol>
        <symbol id="most-popular" viewBox="0 0 108 26">
            <title>Most popular membership</title>
            <path fill="currentcolor" d="M25.91 16.991c.448 0 .837-.101 1.168-.304.341-.213.608-.528.8-.944.192-.426.288-.965.288-1.616 0-.65-.096-1.184-.288-1.6-.192-.426-.459-.741-.8-.944-.33-.213-.72-.32-1.168-.32-.438 0-.827.107-1.168.32-.33.203-.592.518-.784.944-.181.416-.272.95-.272 1.6 0 .651.09 1.19.272 1.616.192.416.453.731.784.944.341.203.73.304 1.168.304Zm23.444-2.32c0 .427.064.816.192 1.168.138.342.357.619.656.832.298.214.693.32 1.184.32.618 0 1.146-.229 1.584-.688.437-.469.656-1.2.656-2.192 0-.992-.219-1.717-.656-2.176a2.109 2.109 0 0 0-1.584-.688c-.491 0-.886.107-1.184.32-.299.203-.518.48-.656.832a3.396 3.396 0 0 0-.192 1.168v1.104Zm10.587 2.32c.448 0 .837-.101 1.168-.304.341-.213.608-.528.8-.944.192-.426.288-.965.288-1.616 0-.65-.096-1.184-.288-1.6-.192-.426-.459-.741-.8-.944-.33-.213-.72-.32-1.168-.32a2.16 2.16 0 0 0-1.168.32c-.33.203-.592.518-.784.944-.181.416-.272.95-.272 1.6 0 .651.09 1.19.272 1.616.192.416.453.731.784.944.341.203.73.304 1.168.304Zm6.819-2.32c0 .427.064.816.192 1.168.139.342.357.619.656.832.299.214.693.32 1.184.32.619 0 1.147-.229 1.584-.688.437-.469.656-1.2.656-2.192 0-.992-.219-1.717-.656-2.176a2.109 2.109 0 0 0-1.584-.688c-.49 0-.885.107-1.184.32-.299.203-.517.48-.656.832a3.394 3.394 0 0 0-.192 1.168v1.104Zm23.678-.725v1.077c0 .288-.06.55-.176.784a1.872 1.872 0 0 1-.464.624 2.12 2.12 0 0 1-.704.432 2.632 2.632 0 0 1-.896.144c-.363 0-.635-.074-.816-.224-.182-.149-.272-.357-.272-.624a.83.83 0 0 1 .256-.608c.17-.181.437-.362.8-.544l2.272-1.06Z"/>
            <path fill="currentcolor" fill-rule="evenodd" d="M21.933 1.235c-7.95.445-15.353.97-16.45 1.172-1.233.202-2.878 1.252-3.838 2.303C.823 5.8 0 9.436 0 13.113c0 5.413.411 6.706 2.468 8.08 1.37.888 3.7 1.898 5.209 2.262 1.37.363 5.62.848 9.458 1.09 3.702.243 13.023.647 20.563.93 7.54.283 21.66.525 31.53.525 12.337 0 20.287-.202 26.045-.687 7.452-.593 8.737-1.844 11.227-8.322.946-2.46 1.634-4.982 1.364-10.948C107.615.542 102.231.375 97.168.262c-1.2-.027-2.27-.051-3.083-.143-3.9-.44-59.951.43-72.152 1.116ZM11.14 18H9.763V7.28h1.552l2.768 5.312 1.088 2.352 1.072-2.352 2.784-5.312h1.552V18h-1.392v-5.92l.144-2.896-1.184 2.656-2.304 4.368h-1.36l-2.304-4.368-1.2-2.656.16 2.896V18Zm14.77.16c-.714 0-1.348-.165-1.903-.496-.544-.33-.97-.8-1.28-1.408-.31-.608-.464-1.317-.464-2.128 0-.821.154-1.53.464-2.128a3.418 3.418 0 0 1 1.28-1.408c.555-.33 1.19-.496 1.904-.496.715 0 1.344.166 1.888.496.555.331.987.8 1.296 1.408.32.598.48 1.307.48 2.128 0 .811-.16 1.52-.48 2.128a3.382 3.382 0 0 1-1.296 1.408c-.544.331-1.173.496-1.888.496Zm6.76-.24c.49.16 1.002.24 1.535.24.512 0 .976-.08 1.392-.24.427-.16.768-.4 1.024-.72.267-.33.4-.752.4-1.264 0-.533-.17-.981-.512-1.344-.33-.373-.933-.661-1.808-.864l-.992-.256c-.522-.128-.917-.272-1.184-.432-.256-.16-.384-.41-.384-.752 0-.33.128-.581.384-.752.256-.17.587-.256.992-.256.555 0 1.014.134 1.376.4.374.267.656.63.848 1.088l1.056-.784c-.213-.512-.597-.954-1.152-1.328-.544-.373-1.226-.56-2.048-.56-.842 0-1.514.203-2.016.608-.5.406-.752.96-.752 1.664 0 .47.118.854.352 1.152.235.288.528.518.88.688.352.16.71.283 1.072.368l1.024.24a5.64 5.64 0 0 1 1.136.384c.32.15.48.4.48.752a.88.88 0 0 1-.416.784c-.277.171-.645.256-1.104.256-.512 0-.949-.085-1.312-.256a2.54 2.54 0 0 1-.88-.656 2.9 2.9 0 0 1-.464-.848l-1.008.784c.182.48.448.88.8 1.2.363.31.79.544 1.28.704Zm8.385.256c-.427 0-.8-.085-1.12-.256a1.959 1.959 0 0 1-.752-.752c-.181-.32-.272-.704-.272-1.152v-4.672h-1.264v-1.088h1.264v-.992l1.376-1.024v2.016h2.544v1.088h-2.544V15.6c0 .491.101.822.304.992.203.16.459.24.768.24.341 0 .63-.112.864-.336a2.37 2.37 0 0 0 .512-.72l.464 1.376c-.17.267-.437.507-.8.72-.363.203-.81.304-1.344.304Zm9.372-.432c.362.278.842.416 1.44.416.65 0 1.21-.165 1.68-.496.469-.341.832-.816 1.088-1.424.266-.608.4-1.317.4-2.128 0-.821-.134-1.53-.4-2.128-.256-.608-.619-1.077-1.088-1.408-.47-.33-1.03-.496-1.68-.496-.598 0-1.078.134-1.44.4a2.441 2.441 0 0 0-.816 1.056c-.108.26-.194.53-.256.805v-2.085h-1.376v10.72h1.376v-5.079c.062.273.148.537.256.791.181.427.453.779.816 1.056Zm9.515.416c-.715 0-1.35-.165-1.904-.496-.544-.33-.97-.8-1.28-1.408-.31-.608-.464-1.317-.464-2.128 0-.821.155-1.53.464-2.128a3.417 3.417 0 0 1 1.28-1.408c.555-.33 1.19-.496 1.904-.496.715 0 1.344.166 1.888.496.555.331.987.8 1.296 1.408.32.598.48 1.307.48 2.128 0 .811-.16 1.52-.48 2.128a3.384 3.384 0 0 1-1.296 1.408c-.544.331-1.173.496-1.888.496Zm7.89-.416c.364.278.844.416 1.44.416.652 0 1.212-.165 1.681-.496.47-.341.832-.816 1.088-1.424.267-.608.4-1.317.4-2.128 0-.821-.133-1.53-.4-2.128-.256-.608-.619-1.077-1.088-1.408-.47-.33-1.03-.496-1.68-.496-.597 0-1.077.134-1.44.4a2.443 2.443 0 0 0-.816 1.056c-.108.26-.193.53-.256.805v-2.085h-1.376v10.72h1.376v-5.079c.063.273.148.537.256.791.181.427.453.779.816 1.056Zm8.672.416c-.501 0-.939-.096-1.312-.288a2.083 2.083 0 0 1-.864-.88c-.192-.384-.288-.842-.288-1.376v-5.36h1.376v5.024c0 .502.123.912.368 1.232.245.32.693.48 1.344.48.501 0 .901-.106 1.2-.32a1.75 1.75 0 0 0 .64-.848c.139-.352.208-.741.208-1.168v-4.4h1.376V18h-1.376v-2.147a4.2 4.2 0 0 1-.304.835 2.677 2.677 0 0 1-.896 1.056c-.384.278-.875.416-1.472.416Zm6.162-.16h1.376V7.28h-1.376V18Zm10.045 0h-.896c-.267 0-.507-.048-.72-.144a1.06 1.06 0 0 1-.48-.464c-.118-.213-.176-.501-.176-.864v-.547a3.598 3.598 0 0 1-.368.883 2.853 2.853 0 0 1-.896.928c-.384.246-.86.368-1.424.368-.651 0-1.158-.165-1.52-.496-.352-.341-.528-.768-.528-1.28 0-.522.176-.954.528-1.296.352-.352.805-.65 1.36-.896l2.796-1.25c-.023-.427-.144-.789-.364-1.086-.235-.33-.678-.496-1.328-.496-.555 0-1.02.144-1.392.432a2.84 2.84 0 0 0-.848 1.056l-.944-.976c.16-.266.389-.533.688-.8a3.859 3.859 0 0 1 1.136-.688 3.824 3.824 0 0 1 1.52-.288c.949 0 1.674.267 2.176.8.5.523.752 1.248.752 2.176v3.184c0 .182.037.31.112.384a.478.478 0 0 0 .32.096h.496V18Zm1.611 0h1.376v-4.384c0-.448.091-.858.272-1.232a2.66 2.66 0 0 1 .704-.912c.288-.234.598-.352.928-.352.288 0 .491.086.608.256.128.16.192.352.192.576 0 .214-.048.427-.144.64a1.33 1.33 0 0 1-.32.496h1.52c.064-.096.128-.256.192-.48.075-.234.112-.517.112-.848 0-.554-.17-.97-.512-1.248a1.697 1.697 0 0 0-1.12-.416c-.384 0-.725.08-1.024.24a2.38 2.38 0 0 0-.768.656 3.597 3.597 0 0 0-.496.912 5.034 5.034 0 0 0-.144.503v-2.15h-1.376V18Z" clip-rule="evenodd"/>
        </symbol>
        <symbol id="swatseo-logo" viewBox="0 0 697 106">
            <path d="M40.642 96.28c-8.619 0-15.915-1.28-21.888-3.84-5.973-2.56-10.538-6.144-13.696-10.752C1.986 76.995.45 71.576.45 65.432h26.368c0 2.219.512 4.181 1.536 5.888 1.024 1.622 2.603 2.902 4.736 3.84 2.219.939 5.12 1.408 8.704 1.408 3.755 0 6.699-.64 8.832-1.92 2.219-1.28 3.328-3.114 3.328-5.504 0-1.707-.298-3.072-.896-4.096-.512-1.11-1.45-2.005-2.816-2.688-1.365-.682-3.285-1.237-5.76-1.664-2.474-.512-5.632-1.066-9.472-1.664-5.376-.768-10.112-1.92-14.208-3.456s-7.51-3.456-10.24-5.76c-2.73-2.304-4.778-5.035-6.144-8.192-1.365-3.157-2.048-6.784-2.048-10.88 0-6.314 1.536-11.733 4.608-16.256C10.136 9.965 14.573 6.51 20.29 4.12 26.093 1.73 32.962.536 40.898.536c7.51 0 14.037 1.195 19.584 3.584 5.632 2.304 9.984 5.59 13.056 9.856 3.157 4.181 4.736 9.088 4.736 14.72H52.162c-.085-2.304-.725-4.096-1.92-5.376-1.194-1.28-2.688-2.176-4.48-2.688a19.937 19.937 0 0 0-5.504-.768c-2.219 0-4.181.299-5.888.896-1.621.598-2.901 1.45-3.84 2.56-.853 1.11-1.28 2.432-1.28 3.968 0 2.219.64 3.883 1.92 4.992 1.365 1.024 3.499 1.835 6.4 2.432 2.987.512 6.87 1.152 11.648 1.92a83.204 83.204 0 0 1 11.136 2.304c3.755 1.024 7.168 2.56 10.24 4.608 3.157 2.048 5.675 4.907 7.552 8.576 1.877 3.67 2.816 8.448 2.816 14.336 0 5.803-1.493 10.965-4.48 15.488-2.986 4.523-7.466 8.064-13.44 10.624-5.888 2.475-13.355 3.712-22.4 3.712Zm63.82-1.28L85.518 1.688h28.672l6.528 42.112 3.072 22.912h1.152l9.856-65.024h31.488l10.368 65.28h1.024l2.688-22.784 6.144-42.496h28.672L196.238 95H160.91l-9.856-57.6h-1.024L139.79 95h-35.328Zm106.282 0L239.8 1.688h36.992L305.848 95H278.84l-4.864-16.64h-31.36L237.752 95h-27.008Zm37.632-36.352h19.84l-5.504-18.816-3.968-14.848h-.896l-3.968 14.848-5.504 18.816ZM322.002 95V23.96h-25.728V1.688h78.208V23.96h-26.496V95h-25.984Zm57.338 10.368 40.448-103.68h9.984l-40.192 103.68h-10.24Zm99.15-9.216c-8.192 0-14.976-1.28-20.352-3.84-5.29-2.56-9.258-6.101-11.904-10.624-2.56-4.608-3.925-9.856-4.096-15.744h11.392c.086 4.352 1.024 8.15 2.816 11.392 1.878 3.243 4.608 5.718 8.192 7.424 3.67 1.707 8.363 2.56 14.08 2.56 7.254 0 13.056-1.322 17.408-3.968 4.438-2.73 6.656-6.87 6.656-12.416 0-3.072-.469-5.632-1.408-7.68-.938-2.133-2.432-3.883-4.48-5.248-2.048-1.365-4.736-2.517-8.064-3.456-3.328-1.024-7.338-1.92-12.032-2.688-5.376-1.024-10.069-2.176-14.08-3.456-4.01-1.28-7.381-2.858-10.112-4.736-2.645-1.962-4.65-4.352-6.016-7.168-1.365-2.816-2.048-6.186-2.048-10.112 0-5.205 1.323-9.728 3.968-13.568 2.646-3.925 6.443-6.912 11.392-8.96 4.95-2.133 10.923-3.2 17.92-3.2 7.083 0 13.056 1.152 17.92 3.456 4.864 2.219 8.619 5.333 11.264 9.344 2.646 4.01 4.011 8.747 4.096 14.208h-11.136c-.17-4.096-1.194-7.51-3.072-10.24-1.877-2.73-4.48-4.778-7.808-6.144-3.328-1.365-7.253-2.048-11.776-2.048-4.608 0-8.49.683-11.648 2.048-3.157 1.28-5.589 3.072-7.296 5.376-1.706 2.304-2.56 5.035-2.56 8.192 0 3.755.854 6.699 2.56 8.832 1.792 2.048 4.608 3.67 8.448 4.864 3.926 1.195 9.003 2.347 15.232 3.456 4.267.683 8.32 1.579 12.16 2.688 3.84 1.11 7.254 2.646 10.24 4.608 2.987 1.963 5.334 4.608 7.04 7.936 1.792 3.243 2.688 7.467 2.688 12.672 0 5.206-1.365 9.77-4.096 13.696-2.73 3.925-6.741 6.998-12.032 9.216-5.29 2.219-11.776 3.328-19.456 3.328ZM532.029 95V1.688h64.128v9.6h-53.248v31.488h46.976v8.96h-46.976v33.536h53.376V95h-64.256Zm119.04 1.152c-6.826 0-13.056-1.11-18.688-3.328-5.546-2.218-10.368-5.418-14.464-9.6-4.01-4.181-7.082-9.216-9.216-15.104-2.133-5.888-3.2-12.459-3.2-19.712 0-7.339 1.067-13.952 3.2-19.84 2.219-5.888 5.333-10.88 9.344-14.976 4.011-4.181 8.79-7.381 14.336-9.6 5.632-2.219 11.862-3.328 18.688-3.328 6.912 0 13.142 1.11 18.688 3.328 5.632 2.219 10.454 5.419 14.464 9.6 4.011 4.181 7.083 9.216 9.216 15.104 2.219 5.803 3.328 12.373 3.328 19.712s-1.109 13.952-3.328 19.84c-2.133 5.888-5.248 10.923-9.344 15.104-4.01 4.096-8.832 7.254-14.464 9.472-5.546 2.219-11.733 3.328-18.56 3.328Zm0-9.6c7.083 0 13.184-1.536 18.304-4.608 5.12-3.157 9.088-7.552 11.904-13.184 2.816-5.717 4.224-12.501 4.224-20.352 0-5.973-.81-11.306-2.432-16-1.621-4.693-3.925-8.661-6.912-11.904-2.986-3.328-6.613-5.845-10.88-7.552-4.181-1.792-8.917-2.688-14.208-2.688-7.082 0-13.184 1.536-18.304 4.608-5.034 3.072-8.96 7.467-11.776 13.184-2.816 5.632-4.224 12.416-4.224 20.352 0 5.888.811 11.221 2.432 16 1.622 4.694 3.883 8.704 6.784 12.032 2.987 3.243 6.571 5.76 10.752 7.552 4.267 1.707 9.046 2.56 14.336 2.56Z" fill="currentColor"/>
        </symbol>
    </defs>
</svg>
